<mxfile host="app.diagrams.net" modified="2024-03-12T07:52:15.888Z" agent="Mozilla/5.0 (Windows NT 10.0; Win64; x64) AppleWebKit/537.36 (KHTML, like Gecko) Chrome/122.0.0.0 Safari/537.36" etag="wuGifCbMR58Djudw-WuI" version="24.0.5" type="github">
  <diagram name="Strona-1" id="Mquc2S41Qm95qRwLbqxn">
    <mxGraphModel dx="1194" dy="760" grid="1" gridSize="10" guides="1" tooltips="1" connect="1" arrows="1" fold="1" page="1" pageScale="1" pageWidth="827" pageHeight="1169" math="0" shadow="0">
      <root>
        <mxCell id="0" />
        <mxCell id="1" parent="0" />
        <mxCell id="Hg5ejwoXgNJ7ON_vXz7u-2" value="" style="endArrow=classic;html=1;rounded=0;" edge="1" parent="1">
          <mxGeometry width="50" height="50" relative="1" as="geometry">
            <mxPoint x="400" y="80" as="sourcePoint" />
            <mxPoint x="400" y="120" as="targetPoint" />
          </mxGeometry>
        </mxCell>
        <mxCell id="Hg5ejwoXgNJ7ON_vXz7u-5" value="Podaj a, b, c" style="shape=parallelogram;html=1;strokeWidth=2;perimeter=parallelogramPerimeter;whiteSpace=wrap;rounded=1;arcSize=12;size=0.23;" vertex="1" parent="1">
          <mxGeometry x="350" y="120" width="100" height="60" as="geometry" />
        </mxCell>
        <mxCell id="Hg5ejwoXgNJ7ON_vXz7u-6" value="Start" style="strokeWidth=2;html=1;shape=mxgraph.flowchart.start_1;whiteSpace=wrap;" vertex="1" parent="1">
          <mxGeometry x="350" y="20" width="100" height="60" as="geometry" />
        </mxCell>
        <mxCell id="Hg5ejwoXgNJ7ON_vXz7u-7" value="a != 0" style="strokeWidth=2;html=1;shape=mxgraph.flowchart.decision;whiteSpace=wrap;" vertex="1" parent="1">
          <mxGeometry x="350" y="210" width="100" height="100" as="geometry" />
        </mxCell>
        <mxCell id="Hg5ejwoXgNJ7ON_vXz7u-8" value="" style="endArrow=classic;html=1;rounded=0;entryX=0.5;entryY=0;entryDx=0;entryDy=0;entryPerimeter=0;exitX=0.5;exitY=1;exitDx=0;exitDy=0;" edge="1" parent="1" source="Hg5ejwoXgNJ7ON_vXz7u-5" target="Hg5ejwoXgNJ7ON_vXz7u-7">
          <mxGeometry width="50" height="50" relative="1" as="geometry">
            <mxPoint x="390" y="220" as="sourcePoint" />
            <mxPoint x="400" y="190" as="targetPoint" />
          </mxGeometry>
        </mxCell>
        <mxCell id="Hg5ejwoXgNJ7ON_vXz7u-19" value="" style="edgeStyle=orthogonalEdgeStyle;rounded=0;orthogonalLoop=1;jettySize=auto;html=1;" edge="1" parent="1" source="Hg5ejwoXgNJ7ON_vXz7u-9" target="Hg5ejwoXgNJ7ON_vXz7u-17">
          <mxGeometry relative="1" as="geometry" />
        </mxCell>
        <mxCell id="Hg5ejwoXgNJ7ON_vXz7u-9" value="to nie jest równanie kwadratowe" style="shape=parallelogram;html=1;strokeWidth=2;perimeter=parallelogramPerimeter;whiteSpace=wrap;rounded=1;arcSize=12;size=0.23;" vertex="1" parent="1">
          <mxGeometry x="130" y="230" width="160" height="60" as="geometry" />
        </mxCell>
        <mxCell id="Hg5ejwoXgNJ7ON_vXz7u-10" value="" style="endArrow=classic;html=1;rounded=0;exitX=0;exitY=0.5;exitDx=0;exitDy=0;exitPerimeter=0;entryX=1;entryY=0.5;entryDx=0;entryDy=0;" edge="1" parent="1" source="Hg5ejwoXgNJ7ON_vXz7u-7" target="Hg5ejwoXgNJ7ON_vXz7u-9">
          <mxGeometry width="50" height="50" relative="1" as="geometry">
            <mxPoint x="390" y="220" as="sourcePoint" />
            <mxPoint x="290" y="260" as="targetPoint" />
            <Array as="points">
              <mxPoint x="310" y="260" />
            </Array>
          </mxGeometry>
        </mxCell>
        <mxCell id="Hg5ejwoXgNJ7ON_vXz7u-21" value="" style="edgeStyle=orthogonalEdgeStyle;rounded=0;orthogonalLoop=1;jettySize=auto;html=1;" edge="1" parent="1" source="Hg5ejwoXgNJ7ON_vXz7u-11" target="Hg5ejwoXgNJ7ON_vXz7u-20">
          <mxGeometry relative="1" as="geometry" />
        </mxCell>
        <mxCell id="Hg5ejwoXgNJ7ON_vXz7u-23" value="" style="edgeStyle=orthogonalEdgeStyle;rounded=0;orthogonalLoop=1;jettySize=auto;html=1;entryX=0.5;entryY=0;entryDx=0;entryDy=0;entryPerimeter=0;" edge="1" parent="1" source="Hg5ejwoXgNJ7ON_vXz7u-11" target="Hg5ejwoXgNJ7ON_vXz7u-22">
          <mxGeometry relative="1" as="geometry" />
        </mxCell>
        <mxCell id="Hg5ejwoXgNJ7ON_vXz7u-11" value="delta &amp;lt; 0" style="strokeWidth=2;html=1;shape=mxgraph.flowchart.decision;whiteSpace=wrap;" vertex="1" parent="1">
          <mxGeometry x="450" y="390" width="100" height="100" as="geometry" />
        </mxCell>
        <mxCell id="Hg5ejwoXgNJ7ON_vXz7u-13" value="" style="edgeStyle=segmentEdgeStyle;endArrow=classic;html=1;curved=0;rounded=0;endSize=8;startSize=8;exitX=1;exitY=0.5;exitDx=0;exitDy=0;exitPerimeter=0;entryX=0.5;entryY=0;entryDx=0;entryDy=0;" edge="1" parent="1" source="Hg5ejwoXgNJ7ON_vXz7u-7" target="Hg5ejwoXgNJ7ON_vXz7u-14">
          <mxGeometry width="50" height="50" relative="1" as="geometry">
            <mxPoint x="450" y="260" as="sourcePoint" />
            <mxPoint x="500" y="300" as="targetPoint" />
            <Array as="points">
              <mxPoint x="500" y="260" />
            </Array>
          </mxGeometry>
        </mxCell>
        <mxCell id="Hg5ejwoXgNJ7ON_vXz7u-16" value="" style="edgeStyle=orthogonalEdgeStyle;rounded=0;orthogonalLoop=1;jettySize=auto;html=1;" edge="1" parent="1" source="Hg5ejwoXgNJ7ON_vXz7u-14" target="Hg5ejwoXgNJ7ON_vXz7u-11">
          <mxGeometry relative="1" as="geometry" />
        </mxCell>
        <mxCell id="Hg5ejwoXgNJ7ON_vXz7u-14" value="delta = b*b - 4*a*c" style="rounded=0;whiteSpace=wrap;html=1;strokeWidth=2;" vertex="1" parent="1">
          <mxGeometry x="440" y="300" width="120" height="60" as="geometry" />
        </mxCell>
        <mxCell id="Hg5ejwoXgNJ7ON_vXz7u-17" value="stop" style="strokeWidth=2;html=1;shape=mxgraph.flowchart.start_1;whiteSpace=wrap;" vertex="1" parent="1">
          <mxGeometry x="160" y="320" width="100" height="60" as="geometry" />
        </mxCell>
        <mxCell id="Hg5ejwoXgNJ7ON_vXz7u-20" value="brak rozwiązań w zbiorze liczb rzeczywistych" style="shape=parallelogram;perimeter=parallelogramPerimeter;whiteSpace=wrap;html=1;fixedSize=1;strokeWidth=2;" vertex="1" parent="1">
          <mxGeometry x="280" y="410" width="130" height="60" as="geometry" />
        </mxCell>
        <mxCell id="Hg5ejwoXgNJ7ON_vXz7u-29" value="Tak" style="edgeStyle=orthogonalEdgeStyle;rounded=0;orthogonalLoop=1;jettySize=auto;html=1;" edge="1" parent="1" source="Hg5ejwoXgNJ7ON_vXz7u-22" target="Hg5ejwoXgNJ7ON_vXz7u-27">
          <mxGeometry x="-0.2941" relative="1" as="geometry">
            <mxPoint as="offset" />
          </mxGeometry>
        </mxCell>
        <mxCell id="Hg5ejwoXgNJ7ON_vXz7u-32" value="" style="edgeStyle=orthogonalEdgeStyle;rounded=0;orthogonalLoop=1;jettySize=auto;html=1;" edge="1" parent="1" source="Hg5ejwoXgNJ7ON_vXz7u-22" target="Hg5ejwoXgNJ7ON_vXz7u-31">
          <mxGeometry relative="1" as="geometry" />
        </mxCell>
        <mxCell id="Hg5ejwoXgNJ7ON_vXz7u-22" value="delta == 0" style="strokeWidth=2;html=1;shape=mxgraph.flowchart.decision;whiteSpace=wrap;" vertex="1" parent="1">
          <mxGeometry x="570" y="460" width="100" height="100" as="geometry" />
        </mxCell>
        <mxCell id="Hg5ejwoXgNJ7ON_vXz7u-34" value="" style="edgeStyle=orthogonalEdgeStyle;rounded=0;orthogonalLoop=1;jettySize=auto;html=1;" edge="1" parent="1" source="Hg5ejwoXgNJ7ON_vXz7u-27" target="Hg5ejwoXgNJ7ON_vXz7u-33">
          <mxGeometry relative="1" as="geometry" />
        </mxCell>
        <mxCell id="Hg5ejwoXgNJ7ON_vXz7u-27" value="x = -b/2a" style="rounded=0;whiteSpace=wrap;html=1;strokeWidth=2;" vertex="1" parent="1">
          <mxGeometry x="430" y="600" width="120" height="60" as="geometry" />
        </mxCell>
        <mxCell id="Hg5ejwoXgNJ7ON_vXz7u-30" value="" style="rounded=0;whiteSpace=wrap;html=1;" vertex="1" parent="1">
          <mxGeometry x="680" y="600" width="120" height="60" as="geometry" />
        </mxCell>
        <mxCell id="Hg5ejwoXgNJ7ON_vXz7u-36" value="" style="edgeStyle=orthogonalEdgeStyle;rounded=0;orthogonalLoop=1;jettySize=auto;html=1;" edge="1" parent="1" source="Hg5ejwoXgNJ7ON_vXz7u-31" target="Hg5ejwoXgNJ7ON_vXz7u-35">
          <mxGeometry relative="1" as="geometry" />
        </mxCell>
        <mxCell id="Hg5ejwoXgNJ7ON_vXz7u-31" value="x1 = -b-sqrt(delta)/2a&lt;div&gt;x2 = -b+sqrt(delta)/2a&lt;br&gt;&lt;/div&gt;" style="whiteSpace=wrap;html=1;strokeWidth=2;" vertex="1" parent="1">
          <mxGeometry x="680" y="600" width="120" height="60" as="geometry" />
        </mxCell>
        <mxCell id="Hg5ejwoXgNJ7ON_vXz7u-33" value="wypisz x" style="shape=parallelogram;perimeter=parallelogramPerimeter;whiteSpace=wrap;html=1;fixedSize=1;rounded=0;strokeWidth=2;" vertex="1" parent="1">
          <mxGeometry x="430" y="720" width="120" height="60" as="geometry" />
        </mxCell>
        <mxCell id="Hg5ejwoXgNJ7ON_vXz7u-35" value="wypisz x1, x2" style="shape=parallelogram;perimeter=parallelogramPerimeter;whiteSpace=wrap;html=1;fixedSize=1;strokeWidth=2;" vertex="1" parent="1">
          <mxGeometry x="680" y="720" width="120" height="60" as="geometry" />
        </mxCell>
      </root>
    </mxGraphModel>
  </diagram>
</mxfile>
